<svg width="300" height="172" viewBox="0 0 300 172" fill="none" xmlns="http://www.w3.org/2000/svg">
<path d="M285.989 51.9419C287.712 58.9103 285.64 66.5271 280.296 74.3707C274.952 82.214 266.366 90.2337 255.174 97.9639C232.793 113.422 200.079 127.66 162.338 136.992C124.596 146.324 89.017 148.973 62.0108 145.726C48.5059 144.103 37.1722 141.008 28.7887 136.559C20.4048 132.11 15.0222 126.337 13.2992 119.368C11.5761 112.4 13.6477 104.783 18.9921 96.9395C24.3362 89.0962 32.9217 81.0765 44.1139 73.3463C66.495 57.8881 99.2088 43.6503 136.95 34.3182C174.692 24.9861 210.271 22.3374 237.277 25.5839C250.782 27.2074 262.116 30.3018 270.499 34.7507C278.883 39.1998 284.266 44.9735 285.989 51.9419Z" stroke="#F0E8DF"/>
</svg>
