<svg width="229" height="229" viewBox="0 0 229 229" fill="none" xmlns="http://www.w3.org/2000/svg">
<path d="M191.251 151.521L135.83 130.995L169.274 179.722L126.993 138.43L137.726 196.547L115.896 141.626L102.063 199.085L104.457 140.033L68.4504 186.898L94.6563 133.926L42.7007 162.093L88.1867 124.36L29.2661 128.96L86.1672 112.989L30.4696 93.2265L88.9471 101.78L46.1031 61.072L96.0458 92.6714L73.4634 38.0561L106.236 87.2371L107.82 28.1585L117.755 86.4173L143.231 33.0906L128.612 90.3536L173.576 51.9995L136.929 98.3655L193.606 81.6157L141.268 109.068L199.858 116.818L140.88 120.61L191.251 151.521Z" fill="#B5CFD3"/>
</svg>
