<svg width="1471" height="776" viewBox="0 0 1471 776" fill="none" xmlns="http://www.w3.org/2000/svg">
<path d="M1470.17 464.474C1359.67 313.974 1246.1 404.769 1165.47 399.249C1084.84 393.729 1107.23 328.258 1151.67 337.258C1191.17 345.258 1263.13 448.254 1122.9 480.215C993.492 509.708 978.135 365.559 851.056 399.643C723.977 433.726 564.157 546.963 465.195 447.899C366.232 348.836 195.668 220.474 3.66844 323.474" stroke="#F0E8DF"/>
<path d="M486.945 472.255L457.92 450.111L468.865 484.939L451.356 452.904L447.188 489.173L444.223 452.786L425.663 484.224L437.755 449.777L408.013 470.948L433.07 444.397L397.288 451.641L430.978 437.577L395.343 429.641L431.841 430.495L402.515 408.751L435.509 424.377L417.563 392.585L441.349 420.28L437.885 383.937L448.351 418.913L459.968 384.302L455.303 420.511L479.994 393.618L461.005 424.799L494.499 410.274L464.469 431.035L500.975 431.389L465.097 438.142L498.303 453.313L462.781 444.889L486.945 472.255Z" fill="#F0E8DF"/>
<path d="M1202.34 472.067L1174.87 471.263L1194.12 490.873L1170.73 476.443L1177.6 503.05L1164.56 478.861L1157.2 505.336L1158.01 477.869L1138.4 497.118L1152.83 473.733L1126.22 480.598L1150.41 467.561L1123.93 460.202L1151.4 461.006L1132.15 441.396L1155.54 455.826L1148.67 429.219L1161.71 453.408L1169.07 426.933L1168.26 454.4L1187.87 435.151L1173.44 458.536L1200.05 451.671L1175.86 464.708L1202.34 472.067Z" fill="#F0E8DF"/>
</svg>
