<svg width="133" height="57" viewBox="0 0 133 57" fill="none" xmlns="http://www.w3.org/2000/svg">
<path d="M128.516 53.8954C128.786 53.8805 129.05 53.8138 129.294 53.6988C129.52 53.5924 129.725 53.4451 129.898 53.2644C130.247 52.9056 130.442 52.4226 130.441 51.9197C130.445 51.4133 130.25 50.9261 129.898 50.5647C129.725 50.3866 129.52 50.2428 129.294 50.1406C129.047 50.0363 128.784 49.9734 128.516 49.9545V53.8954ZM125.446 51.9197C125.444 51.5584 125.516 51.2007 125.659 50.8694C125.802 50.5381 126.012 50.2406 126.275 49.9958C126.529 49.7534 126.828 49.5637 127.155 49.4373C127.481 49.3044 127.828 49.2343 128.179 49.2304C128.53 49.233 128.877 49.3032 129.202 49.4373C129.522 49.5665 129.817 49.7521 130.072 49.9855C130.321 50.2321 130.523 50.5232 130.666 50.844C130.808 51.1828 130.881 51.5468 130.881 51.9146C130.881 52.2823 130.808 52.6463 130.666 52.9851C130.525 53.3039 130.319 53.5893 130.062 53.823C129.813 54.0596 129.521 54.2457 129.202 54.3712C128.877 54.5021 128.529 54.5689 128.179 54.5677H127.902V49.9648C127.63 49.9811 127.363 50.0477 127.114 50.1613C126.88 50.2687 126.668 50.4196 126.49 50.6061C126.315 50.7801 126.175 50.9875 126.08 51.2164C125.978 51.4473 125.925 51.6977 125.927 51.9508C125.93 52.1254 125.954 52.299 125.998 52.4679C126.046 52.6331 126.111 52.7926 126.193 52.9437C126.274 53.0842 126.374 53.2129 126.49 53.3265C126.604 53.4415 126.74 53.5329 126.889 53.5954L126.725 54.2057C126.527 54.1245 126.346 54.005 126.193 53.854C126.024 53.7043 125.881 53.5257 125.773 53.3265C125.648 53.125 125.555 52.9052 125.497 52.6748C125.459 52.425 125.452 52.1713 125.476 51.9197H125.446ZM125.548 48.1133V47.4203H128.516C128.99 47.4572 129.465 47.3605 129.888 47.141C130.029 47.047 130.143 46.9172 130.218 46.7647C130.294 46.6122 130.328 46.4424 130.318 46.2722C130.321 46.0599 130.282 45.8491 130.205 45.6515C130.134 45.4442 130.027 45.2515 129.888 45.0826C129.749 44.9039 129.587 44.744 129.407 44.6068C129.226 44.4715 129.021 44.3732 128.803 44.3172H125.548V43.6139H130.861V44.2552H129.663C130.052 44.4778 130.374 44.8032 130.594 45.1964C130.832 45.6001 130.955 46.0614 130.953 46.5307C130.962 46.789 130.905 47.0453 130.789 47.2755C130.68 47.4782 130.521 47.6491 130.328 47.772C130.108 47.9063 129.865 47.9975 129.612 48.0409C129.298 48.0968 128.979 48.1245 128.66 48.1237L125.548 48.1133ZM131.976 41.359H133V42.0623H131.976V41.359ZM125.548 41.359H130.861V42.0623H125.548V41.359ZM126.019 35.8355L130.339 39.4661V35.9183H130.861V40.1798H130.39L126.07 36.5699V40.1798H125.548V35.8355H126.019ZM126.019 32.1946C126.013 32.5502 126.083 32.903 126.224 33.2289C126.335 33.5079 126.523 33.7485 126.766 33.922C126.821 33.9824 126.887 34.0315 126.961 34.0668C127.028 34.0804 127.098 34.0804 127.165 34.0668H128.025C128.12 33.8338 128.188 33.5909 128.23 33.3427C128.28 33.0907 128.304 32.8342 128.302 32.5773C128.321 32.152 128.214 31.7307 127.994 31.3671C127.914 31.2255 127.797 31.1079 127.657 31.0262C127.517 30.9445 127.358 30.9015 127.196 30.9016C127.037 30.9041 126.88 30.9393 126.735 31.0051C126.594 31.0657 126.468 31.1576 126.367 31.274C126.255 31.3894 126.168 31.5267 126.111 31.6774C126.044 31.8415 126.009 32.0171 126.009 32.1946H126.019ZM125.487 32.0291C125.487 31.7883 125.532 31.5498 125.62 31.3257C125.701 31.1166 125.819 30.9239 125.968 30.7568C126.115 30.5941 126.297 30.4669 126.5 30.3845C126.702 30.2914 126.923 30.2455 127.145 30.25C127.367 30.2471 127.586 30.3042 127.779 30.4155C127.986 30.5241 128.163 30.6843 128.291 30.881C128.442 31.0947 128.556 31.3324 128.629 31.5843C128.705 31.8816 128.743 32.1875 128.742 32.4945C128.743 32.772 128.719 33.049 128.67 33.322C128.63 33.5807 128.562 33.834 128.465 34.0771H128.946C129.15 34.0879 129.353 34.0578 129.544 33.9886C129.736 33.9193 129.912 33.8123 130.062 33.6737C130.204 33.5287 130.313 33.3552 130.384 33.1644C130.454 32.9737 130.484 32.7701 130.472 32.567C130.471 32.2763 130.415 31.9884 130.308 31.7188C130.191 31.4087 130.033 31.1164 129.837 30.8499L130.298 30.6017C130.734 31.2027 130.977 31.9249 130.994 32.6704C131.01 32.9589 130.969 33.2479 130.872 33.5199C130.776 33.7918 130.625 34.0412 130.431 34.2529C130.227 34.4525 129.984 34.607 129.718 34.7067C129.452 34.8064 129.168 34.8492 128.885 34.8322H126.49C126.295 34.8322 126.203 34.9149 126.203 35.0908H125.589C125.582 35.0013 125.582 34.9114 125.589 34.8218C125.584 34.6693 125.631 34.5198 125.722 34.3978C125.821 34.3015 125.953 34.2461 126.091 34.2426H126.51C126.194 33.9962 125.942 33.677 125.773 33.3117C125.58 32.9123 125.478 32.4738 125.476 32.0291H125.487ZM126.101 26.6608C126.102 26.8693 126.14 27.0759 126.213 27.271C126.283 27.4651 126.384 27.6467 126.51 27.8089C126.635 27.965 126.78 28.1041 126.94 28.2227C127.087 28.3224 127.25 28.3958 127.421 28.4399H129.059C129.247 28.3568 129.426 28.2527 129.591 28.1296C129.749 28.0025 129.887 27.8526 130.001 27.6848C130.121 27.5252 130.214 27.3471 130.277 27.1573C130.346 26.972 130.38 26.7758 130.38 26.578C130.384 26.2979 130.321 26.021 130.195 25.7712C130.072 25.5408 129.905 25.3369 129.704 25.1713C129.496 25.0051 129.26 24.8789 129.008 24.7989C128.754 24.7133 128.488 24.668 128.22 24.6645C127.943 24.6628 127.668 24.7155 127.411 24.8196C127.156 24.9169 126.923 25.0646 126.725 25.2541C126.538 25.4348 126.385 25.6487 126.275 25.885C126.156 26.1262 126.093 26.3914 126.091 26.6608H126.101ZM125.517 26.4746C125.514 26.1158 125.594 25.7613 125.753 25.4402C125.9 25.1402 126.105 24.8729 126.357 24.6541C126.88 24.2041 127.543 23.9551 128.23 23.9508C128.578 23.9502 128.925 24.0097 129.254 24.1266C129.576 24.2389 129.874 24.4107 130.134 24.6334C130.385 24.856 130.591 25.1267 130.738 25.4299C130.896 25.7506 130.974 26.106 130.963 26.4643C130.975 26.8898 130.857 27.3088 130.625 27.6641C130.386 28.0011 130.091 28.2948 129.755 28.533H130.871V29.1536H125.538C125.203 29.1573 124.871 29.0867 124.565 28.9467C124.294 28.8077 124.054 28.6141 123.859 28.3778C123.67 28.1289 123.524 27.849 123.429 27.5503C123.332 27.2143 123.284 26.8659 123.286 26.516C123.266 25.9993 123.379 25.4862 123.613 25.0265C123.83 24.656 124.132 24.3438 124.494 24.1163L124.831 24.5404C124.504 24.7407 124.243 25.0363 124.084 25.3885C123.92 25.7411 123.836 26.1263 123.839 26.516C123.838 26.7686 123.876 27.0198 123.951 27.2607C124.016 27.4814 124.12 27.6882 124.258 27.871C124.402 28.0506 124.584 28.1955 124.79 28.2951C125.025 28.402 125.28 28.455 125.538 28.4502H126.561C126.228 28.2438 125.951 27.9553 125.758 27.6116C125.565 27.2679 125.461 26.8803 125.456 26.4849L125.517 26.4746ZM126.019 20.2685C126.011 20.6243 126.081 20.9774 126.224 21.3028C126.337 21.583 126.525 21.8263 126.766 22.0062C126.822 22.0635 126.888 22.1092 126.961 22.1406C127.028 22.1538 127.098 22.1538 127.165 22.1406H128.025C128.12 21.9041 128.188 21.6578 128.23 21.4063C128.28 21.1543 128.304 20.8978 128.302 20.6408C128.323 20.2186 128.216 19.7998 127.994 19.441C127.914 19.2994 127.797 19.1818 127.657 19.1001C127.517 19.0184 127.358 18.9754 127.196 18.9755C127.038 18.9744 126.881 19.0061 126.735 19.0686C126.597 19.1341 126.472 19.2253 126.367 19.3375C126.253 19.4549 126.165 19.5962 126.111 19.7513C126.049 19.8989 126.015 20.0566 126.009 20.2167L126.019 20.2685ZM125.487 20.103C125.488 19.8623 125.533 19.6239 125.62 19.3996C125.701 19.1905 125.819 18.9978 125.968 18.8307C126.121 18.6746 126.301 18.5484 126.5 18.4583C126.704 18.3701 126.923 18.3244 127.145 18.3239C127.367 18.326 127.584 18.3828 127.779 18.4894C127.982 18.6042 128.157 18.7632 128.291 18.9548C128.444 19.1711 128.558 19.4126 128.629 19.6685C128.706 19.9622 128.743 20.2648 128.742 20.5684C128.743 20.8493 128.719 21.1298 128.67 21.4063C128.628 21.6644 128.559 21.9174 128.465 22.1613H128.946C129.15 22.1721 129.353 22.142 129.544 22.0728C129.736 22.0035 129.912 21.8965 130.062 21.7579C130.203 21.6106 130.313 21.4352 130.383 21.2429C130.454 21.0506 130.484 20.8455 130.472 20.6408C130.471 20.3535 130.415 20.069 130.308 19.803C130.191 19.4896 130.033 19.1938 129.837 18.9238L130.298 18.6756C130.734 19.2765 130.977 19.9988 130.994 20.7443C131.01 21.0328 130.969 21.3218 130.872 21.5937C130.776 21.8657 130.625 22.1151 130.431 22.3268C130.227 22.5264 129.984 22.6809 129.718 22.7806C129.452 22.8803 129.168 22.9231 128.885 22.9061H126.49C126.295 22.9061 126.203 22.9888 126.203 23.1647H125.589C125.582 23.0752 125.582 22.9852 125.589 22.8957C125.582 22.7461 125.63 22.5992 125.722 22.482C125.769 22.4306 125.826 22.3895 125.889 22.361C125.953 22.3326 126.021 22.3174 126.091 22.3165H126.51C126.19 22.0748 125.936 21.7543 125.773 21.3856C125.572 20.9705 125.47 20.5134 125.476 20.0513L125.487 20.103ZM93.9281 26.9814V10.4835C93.9281 9.44911 93.5187 8.96296 92.4643 9.05605L87.2233 9.4698V11.5385H88.1344C89.0454 11.5385 89.4139 11.9109 89.4139 12.9659V26.9297C89.4139 27.9641 88.636 28.2227 87.3667 28.2227V29.9707H95.8423V28.2227C94.6754 28.2227 93.9179 27.9951 93.9179 26.9297L93.9281 26.9814ZM91.3179 6.35639C91.8668 6.35633 92.4034 6.19231 92.8604 5.88496C93.3173 5.5776 93.6742 5.14062 93.886 4.62894C94.0979 4.11725 94.1554 3.5537 94.0512 3.0091C93.9471 2.4645 93.686 1.96317 93.3007 1.56811C92.9154 1.17304 92.4231 0.901876 91.8857 0.788691C91.3483 0.675506 90.7898 0.725352 90.2804 0.931965C89.771 1.13858 89.3334 1.49274 89.0226 1.94993C88.7118 2.40712 88.5417 2.94695 88.5336 3.50157C88.5295 3.87413 88.5985 4.24381 88.7365 4.58932C88.8745 4.93483 89.0787 5.24934 89.3375 5.51471C89.5964 5.78008 89.9046 5.99107 90.2445 6.13553C90.5843 6.27998 90.9491 6.35504 91.3179 6.35639V6.35639ZM109.743 51.3819C108.951 52.0234 107.974 52.3866 106.959 52.4162C105.546 52.4162 105.045 50.8026 105.045 48.8684V36.2803H109.006C109.692 36.2803 109.968 35.9493 109.968 35.2459V33.7461H105.086V29.1846C105.086 28.3468 103.908 28.1503 103.448 29.0398C102.22 31.4809 100.848 34.0668 98.2069 34.0668V36.2803H100.479V48.1133C100.479 52.861 102.578 54.8883 105.956 54.8883C107.752 54.9459 109.511 54.3597 110.92 53.2334C111.657 52.5921 110.47 50.8854 109.743 51.3819ZM95.7502 48.858C95.7502 44.2448 90.7753 42.8691 87.7249 41.8968C85.4422 41.1624 82.7501 40.5625 82.7501 38.4835C82.7501 37.0147 84.0296 35.6286 86.7218 35.6286C89.6801 35.6286 91.1848 37.2009 90.8675 39.2282C90.6832 40.1902 91.369 40.7901 93.1911 40.6556C94.1533 40.6556 94.8801 39.9626 94.6037 36.7871C94.5116 35.8665 91.0927 33.4151 86.7218 33.4151C86.0375 33.416 85.3539 33.4575 84.6745 33.5392L83.7942 33.6841C82.2485 33.7875 81.9517 32.8566 81.9517 31.5533V16.8034C81.9517 10.4421 79.1674 8.7354 74.9296 8.7354C70.5075 8.7354 68.0917 12.4281 67.2728 13.8555L67.4468 12.2419C67.6823 10.1732 67.9996 8.60094 66.3106 8.82849L60.435 9.61461V11.6833C62.1649 11.4558 63.1169 11.9626 63.1169 13.4831V26.9297C63.1169 27.9641 62.4311 28.2227 60.9775 28.2227V29.9707H69.9138V28.2227C68.3681 28.2227 67.6311 27.9951 67.6311 26.9297V15.6966C68.5012 14.6623 70.8248 11.8281 73.9264 11.8281C76.7516 11.8281 77.3453 13.8968 77.3453 17.2171V32.7325C77.3378 33.4382 77.5631 34.1264 77.9857 34.6884C78.4084 35.2503 79.0042 35.6539 79.6792 35.8355C78.9064 36.7597 78.4918 37.9358 78.5123 39.1455C78.5123 43.107 83.1186 44.9482 86.0769 45.8688C88.7281 46.7066 91.3281 47.8547 91.3281 49.4683C91.3281 51.0819 89.9564 52.6955 86.7627 52.6955C83.569 52.6955 82.1154 51.4957 81.706 48.6408C81.6139 47.8133 81.1532 47.0686 79.0138 47.441C77.8776 47.6272 77.3761 48.8684 78.2871 51.6818C78.6044 52.6438 82.0745 54.9918 86.7627 54.9918C91.8706 55.0228 95.7502 52.7265 95.7502 48.858ZM70.487 42.4037H60.8956C60.8956 38.349 62.6767 35.8665 65.8705 35.8665C69.0642 35.8665 70.5382 38.349 70.487 42.4037ZM75.1445 42.0313C75.1445 37.0561 70.7122 33.4668 65.8398 33.4668C60.7216 33.4668 55.9413 37.294 55.9413 44.0586C55.9413 50.4613 60.5988 55.0228 66.3823 55.0228C67.9236 55.0999 69.4592 54.7818 70.8462 54.0982C72.2332 53.4146 73.4266 52.3877 74.3154 51.1129L72.7185 49.3649C72.072 50.2775 71.2192 51.0211 70.2311 51.5338C69.243 52.0465 68.1481 52.3136 67.0374 52.3128C63.3421 52.3128 60.8342 49.127 60.8342 44.8448H72.5548C74.2745 44.8448 75.1445 43.7897 75.1445 42.0313V42.0313ZM35.8782 11.0006V9.24224H28.7128L18.63 29.5156L7.52367 9.24224H0V11.042C1.72993 11.4144 2.68191 12.0764 2.68191 13.4831V33.9737C2.68191 35.3494 1.72993 35.7735 0 36.1872V37.9353H8.25044V36.1975C6.56146 35.7838 5.5583 35.3701 5.5583 33.984V16.3896L16.2757 35.3183C16.9513 36.5182 18.1489 36.5182 18.7324 35.3183L28.3136 15.6656V33.9737C28.3136 35.3494 27.2899 35.7735 25.6624 36.1872V37.9353H35.8986V36.1975C34.1687 35.7838 33.3396 35.3701 33.3396 33.984V13.4831C33.3191 12.0971 34.1482 11.4144 35.8782 11.042V11.0006ZM51.5192 24.4473C50.6321 24.3069 49.7351 24.2412 48.8373 24.2507C47.8888 24.2178 46.9439 24.3847 46.0628 24.7408C45.1816 25.097 44.3835 25.6346 43.7192 26.3194C43.3702 25.7159 43.1603 25.0406 43.105 24.3438C43.105 22.451 43.7396 20.2064 51.4987 18.8617V24.4369L51.5192 24.4473ZM41.8664 29.8363C41.5821 30.9124 41.4409 32.022 41.4467 33.1358V37.4801H38.8979V39.6937C38.8909 39.761 38.8993 39.8291 38.9224 39.8928C38.9454 39.9564 38.9826 40.0138 39.031 40.0607C39.0794 40.1076 39.1377 40.1427 39.2016 40.1634C39.2654 40.184 39.3331 40.1896 39.3994 40.1798H41.4467V51.5577C41.4467 52.5921 41.0782 52.8507 39.3994 52.8507V54.5573H48.3869V52.861C46.3396 52.861 46.0121 52.6334 46.0121 51.5681V40.1798H50.9357C51.8058 40.1798 51.8468 39.9005 52.6657 37.5008H46.0121V32.629C46.0121 29.4018 46.79 26.8676 49.431 26.8676C51.3452 26.8676 52.1539 27.7158 52.9011 29.226C53.0994 29.6236 53.4396 29.9304 53.8531 30.0845V30.0845C54.1087 30.1945 54.3839 30.2509 54.6617 30.25C56.052 30.1652 57.4137 29.8142 58.6744 29.2156V27.3021C56.9035 27.5814 56.1255 27.1676 56.1255 25.6471V16.7517C56.1255 11.1351 53.0546 8.78712 48.1003 8.78712C43.6373 8.78712 39.4404 10.4421 39.4404 13.7107C39.4375 14.0002 39.4925 14.2874 39.6021 14.555C39.7117 14.8225 39.8736 15.065 40.0782 15.2678C40.2827 15.4707 40.5257 15.6297 40.7925 15.7353C41.0593 15.841 41.3445 15.8912 41.631 15.8828C42.9003 15.8828 44.2719 15.376 44.2719 14.4037C44.2719 11.4971 45.4593 10.8558 47.916 10.8558C50.5672 10.8558 51.5704 12.6039 51.5704 16.0276V16.8137C40.6687 18.4273 38.2632 20.8684 38.2632 24.5921C38.253 27.0642 39.5223 28.6571 41.8664 29.8363ZM117.615 7.08043V56.7295H116.929V7.08043H117.615ZM125.558 17.2275V16.5241H128.527C129 16.5572 129.472 16.4531 129.888 16.2241C130.028 16.1261 130.142 15.9944 130.219 15.8409C130.295 15.6874 130.333 15.5169 130.328 15.3449C130.333 15.1426 130.294 14.9416 130.216 14.7553C130.143 14.5703 130.036 14.4016 129.898 14.2589C129.609 13.9261 129.227 13.6884 128.803 13.5762H125.558V12.8832H128.527C129.002 12.9175 129.477 12.8172 129.898 12.5936C130.038 12.4934 130.15 12.3595 130.226 12.2041C130.301 12.0487 130.336 11.8768 130.328 11.704C130.323 11.3179 130.173 10.9481 129.909 10.6696C129.616 10.3402 129.236 10.1031 128.813 9.98697H125.558V9.28361H130.871V9.92491H129.673C130.058 10.1289 130.385 10.4278 130.625 10.7938C130.85 11.1446 130.968 11.5548 130.963 11.9729C130.974 12.1703 130.946 12.3678 130.881 12.5542C130.816 12.7405 130.715 12.9121 130.584 13.059C130.312 13.3418 129.949 13.5177 129.561 13.5555C129.961 13.731 130.302 14.0196 130.544 14.3867C130.785 14.7537 130.917 15.1835 130.922 15.6242C130.932 15.8925 130.875 16.159 130.758 16.4C130.649 16.6026 130.491 16.7736 130.298 16.8965C130.077 17.0386 129.829 17.1336 129.571 17.1757C129.261 17.241 128.945 17.2722 128.629 17.2688L125.558 17.2275Z" fill="#282828"/>
</svg>
