<svg width="133" height="37" viewBox="0 0 133 37" fill="none" xmlns="http://www.w3.org/2000/svg">
<path d="M128.516 34.2843C128.786 34.2749 129.05 34.2328 129.294 34.1603C129.52 34.0931 129.725 34.0001 129.898 33.8861C130.247 33.6596 130.442 33.3548 130.441 33.0374C130.445 32.7178 130.25 32.4103 129.898 32.1822C129.725 32.0698 129.52 31.979 129.294 31.9146C129.047 31.8487 128.784 31.809 128.516 31.7971V34.2843ZM125.446 33.0374C125.444 32.8094 125.516 32.5836 125.659 32.3745C125.802 32.1654 126.012 31.9776 126.275 31.8232C126.529 31.6702 126.828 31.5504 127.155 31.4706C127.481 31.3868 127.828 31.3425 128.179 31.3401C128.53 31.3417 128.877 31.3861 129.202 31.4706C129.522 31.5522 129.817 31.6693 130.072 31.8166C130.321 31.9723 130.523 32.156 130.666 32.3585C130.808 32.5723 130.881 32.802 130.881 33.0341C130.881 33.2663 130.808 33.496 130.666 33.7098C130.525 33.911 130.319 34.0911 130.062 34.2386C129.813 34.388 129.521 34.5054 129.202 34.5846C128.877 34.6673 128.529 34.7094 128.179 34.7086H127.902V31.8036C127.63 31.8138 127.363 31.8559 127.114 31.9276C126.88 31.9954 126.668 32.0906 126.49 32.2083C126.315 32.3181 126.175 32.4491 126.08 32.5935C125.978 32.7392 125.925 32.8973 125.927 33.057C125.93 33.1672 125.954 33.2768 125.998 33.3834C126.046 33.4876 126.111 33.5883 126.193 33.6837C126.274 33.7723 126.374 33.8536 126.49 33.9252C126.604 33.9979 126.74 34.0555 126.889 34.095L126.725 34.4801C126.527 34.4289 126.346 34.3535 126.193 34.2582C126.024 34.1637 125.881 34.051 125.773 33.9252C125.648 33.7981 125.555 33.6594 125.497 33.514C125.459 33.3563 125.452 33.1962 125.476 33.0374H125.446ZM125.548 30.635V30.1977H128.516C128.99 30.221 129.465 30.1599 129.888 30.0214C130.029 29.9621 130.143 29.8802 130.218 29.7839C130.294 29.6877 130.328 29.5804 130.318 29.473C130.321 29.3391 130.282 29.206 130.205 29.0813C130.134 28.9505 130.027 28.8289 129.888 28.7223C129.749 28.6095 129.587 28.5085 129.407 28.422C129.226 28.3366 129.021 28.2745 128.803 28.2392H125.548V27.7953H130.861V28.2H129.663C130.052 28.3405 130.374 28.5459 130.594 28.7941C130.832 29.0489 130.955 29.34 130.953 29.6362C130.962 29.7992 130.905 29.961 130.789 30.1063C130.68 30.2342 130.521 30.3421 130.328 30.4196C130.108 30.5044 129.865 30.562 129.612 30.5893C129.298 30.6246 128.979 30.6421 128.66 30.6416L125.548 30.635ZM131.976 26.3721H133V26.8161H131.976V26.3721ZM125.548 26.3721H130.861V26.8161H125.548V26.3721ZM126.019 22.8861L130.339 25.1775V22.9383H130.861V25.6279H130.39L126.07 23.3496V25.6279H125.548V22.8861H126.019ZM126.019 20.5882C126.013 20.8126 126.083 21.0353 126.224 21.241C126.335 21.4171 126.523 21.5689 126.766 21.6784C126.821 21.7165 126.887 21.7475 126.961 21.7698C127.028 21.7784 127.098 21.7784 127.165 21.7698H128.025C128.12 21.6227 128.188 21.4695 128.23 21.3128C128.28 21.1538 128.304 20.9919 128.302 20.8297C128.321 20.5613 128.214 20.2954 127.994 20.0659C127.914 19.9766 127.797 19.9024 127.657 19.8508C127.517 19.7992 127.358 19.7721 127.196 19.7722C127.037 19.7737 126.88 19.7959 126.735 19.8374C126.594 19.8757 126.468 19.9337 126.367 20.0072C126.255 20.08 126.168 20.1666 126.111 20.2618C126.044 20.3654 126.009 20.4762 126.009 20.5882H126.019ZM125.487 20.4837C125.487 20.3318 125.532 20.1812 125.62 20.0398C125.701 19.9079 125.819 19.7862 125.968 19.6808C126.115 19.5781 126.297 19.4978 126.5 19.4458C126.702 19.387 126.923 19.358 127.145 19.3609C127.367 19.3591 127.586 19.3951 127.779 19.4653C127.986 19.5339 128.163 19.635 128.291 19.7591C128.442 19.894 128.556 20.0441 128.629 20.203C128.705 20.3907 128.743 20.5837 128.742 20.7775C128.743 20.9526 128.719 21.1274 128.67 21.2998C128.63 21.463 128.562 21.6229 128.465 21.7763H128.946C129.15 21.7831 129.353 21.7641 129.544 21.7204C129.736 21.6767 129.912 21.6092 130.062 21.5217C130.204 21.4302 130.313 21.3207 130.384 21.2003C130.454 21.0799 130.484 20.9514 130.472 20.8232C130.471 20.6397 130.415 20.4581 130.308 20.2879C130.191 20.0922 130.033 19.9077 129.837 19.7395L130.298 19.5828C130.734 19.9622 130.977 20.418 130.994 20.8885C131.01 21.0706 130.969 21.253 130.872 21.4246C130.776 21.5963 130.625 21.7537 130.431 21.8873C130.227 22.0132 129.984 22.1108 129.718 22.1737C129.452 22.2366 129.168 22.2636 128.885 22.2529H126.49C126.295 22.2529 126.203 22.3051 126.203 22.4161H125.589C125.582 22.3596 125.582 22.3028 125.589 22.2463C125.584 22.1501 125.631 22.0557 125.722 21.9787C125.821 21.9179 125.953 21.883 126.091 21.8808H126.51C126.194 21.7253 125.942 21.5238 125.773 21.2932C125.58 21.0411 125.478 20.7644 125.476 20.4837H125.487ZM126.101 17.0956C126.102 17.2272 126.14 17.3576 126.213 17.4808C126.283 17.6033 126.384 17.7179 126.51 17.8202C126.635 17.9188 126.78 18.0065 126.94 18.0814C127.087 18.1443 127.25 18.1907 127.421 18.2185H129.059C129.247 18.166 129.426 18.1003 129.591 18.0226C129.749 17.9424 129.887 17.8478 130.001 17.7419C130.121 17.6412 130.214 17.5288 130.277 17.409C130.346 17.2921 130.38 17.1682 130.38 17.0434C130.384 16.8666 130.321 16.6918 130.195 16.5342C130.072 16.3887 129.905 16.2601 129.704 16.1556C129.496 16.0507 129.26 15.971 129.008 15.9205C128.754 15.8665 128.488 15.8379 128.22 15.8357C127.943 15.8346 127.668 15.8679 127.411 15.9336C127.156 15.995 126.923 16.0882 126.725 16.2078C126.538 16.3219 126.385 16.4568 126.275 16.606C126.156 16.7582 126.093 16.9256 126.091 17.0956H126.101ZM125.517 16.9781C125.514 16.7517 125.594 16.5279 125.753 16.3253C125.9 16.1359 126.105 15.9672 126.357 15.8291C126.88 15.5451 127.543 15.3879 128.23 15.3852C128.578 15.3849 128.925 15.4224 129.254 15.4962C129.576 15.5671 129.874 15.6755 130.134 15.8161C130.385 15.9565 130.591 16.1274 130.738 16.3188C130.896 16.5212 130.974 16.7455 130.963 16.9716C130.975 17.2402 130.857 17.5046 130.625 17.7288C130.386 17.9415 130.091 18.1269 129.755 18.2772H130.871V18.6689H125.538C125.203 18.6712 124.871 18.6267 124.565 18.5383C124.294 18.4506 124.054 18.3284 123.859 18.1793C123.67 18.0222 123.524 17.8455 123.429 17.657C123.332 17.4449 123.284 17.2251 123.286 17.0042C123.266 16.6781 123.379 16.3543 123.613 16.0642C123.83 15.8304 124.132 15.6333 124.494 15.4897L124.831 15.7573C124.504 15.8838 124.243 16.0703 124.084 16.2926C123.92 16.5151 123.836 16.7583 123.839 17.0042C123.838 17.1637 123.876 17.3222 123.951 17.4743C124.016 17.6135 124.12 17.7441 124.258 17.8594C124.402 17.9728 124.584 18.0643 124.79 18.1271C125.025 18.1946 125.28 18.228 125.538 18.225H126.561C126.228 18.0947 125.951 17.9126 125.758 17.6957C125.565 17.4788 125.461 17.2341 125.456 16.9846L125.517 16.9781ZM126.019 13.0612C126.011 13.2858 126.081 13.5087 126.224 13.714C126.337 13.8909 126.525 14.0444 126.766 14.1579C126.822 14.1941 126.888 14.2229 126.961 14.2428C127.028 14.2511 127.098 14.2511 127.165 14.2428H128.025C128.12 14.0935 128.188 13.9381 128.23 13.7793C128.28 13.6203 128.304 13.4584 128.302 13.2962C128.323 13.0297 128.216 12.7654 127.994 12.539C127.914 12.4496 127.797 12.3754 127.657 12.3238C127.517 12.2722 127.358 12.2451 127.196 12.2452C127.038 12.2445 126.881 12.2645 126.735 12.3039C126.597 12.3453 126.472 12.4028 126.367 12.4737C126.253 12.5478 126.165 12.6369 126.111 12.7348C126.049 12.828 126.015 12.9275 126.009 13.0286L126.019 13.0612ZM125.487 12.9568C125.488 12.8048 125.533 12.6544 125.62 12.5128C125.701 12.3809 125.819 12.2593 125.968 12.1538C126.121 12.0553 126.301 11.9756 126.5 11.9188C126.704 11.8631 126.923 11.8342 127.145 11.8339C127.367 11.8352 127.584 11.8711 127.779 11.9384C127.982 12.0109 128.157 12.1112 128.291 12.2321C128.444 12.3686 128.558 12.521 128.629 12.6826C128.706 12.8679 128.743 13.0589 128.742 13.2505C128.743 13.4278 128.719 13.6048 128.67 13.7793C128.628 13.9422 128.559 14.1019 128.465 14.2559H128.946C129.15 14.2627 129.353 14.2437 129.544 14.2C129.736 14.1563 129.912 14.0887 130.062 14.0013C130.203 13.9083 130.313 13.7976 130.383 13.6762C130.454 13.5548 130.484 13.4254 130.472 13.2962C130.471 13.1149 130.415 12.9353 130.308 12.7674C130.191 12.5697 130.033 12.383 129.837 12.2125L130.298 12.0559C130.734 12.4352 130.977 12.891 130.994 13.3615C131.01 13.5436 130.969 13.726 130.872 13.8976C130.776 14.0693 130.625 14.2267 130.431 14.3603C130.227 14.4862 129.984 14.5838 129.718 14.6467C129.452 14.7096 129.168 14.7366 128.885 14.7259H126.49C126.295 14.7259 126.203 14.7781 126.203 14.8891H125.589C125.582 14.8326 125.582 14.7758 125.589 14.7194C125.582 14.6249 125.63 14.5322 125.722 14.4582C125.769 14.4258 125.826 14.3998 125.889 14.3819C125.953 14.3639 126.021 14.3544 126.091 14.3538H126.51C126.19 14.2012 125.936 13.999 125.773 13.7662C125.572 13.5043 125.47 13.2158 125.476 12.9241L125.487 12.9568ZM93.9281 17.298V6.88556C93.9281 6.23274 93.5187 5.92592 92.4643 5.98467L87.2234 6.2458V7.55143H88.1344C89.0454 7.55143 89.4139 7.78644 89.4139 8.45232V17.2654C89.4139 17.9182 88.636 18.0814 87.3667 18.0814V19.1846H95.8423V18.0814C94.6754 18.0814 93.9179 17.9378 93.9179 17.2654L93.9281 17.298ZM91.3179 4.28082C91.8668 4.28078 92.4034 4.17727 92.8604 3.98328C93.3173 3.7893 93.6741 3.51351 93.886 3.19057C94.0979 2.86762 94.1554 2.51194 94.0512 2.16823C93.9471 1.82452 93.686 1.50811 93.3007 1.25877C92.9154 1.00943 92.4231 0.838289 91.8857 0.766855C91.3483 0.69542 90.7898 0.726879 90.2804 0.85728C89.771 0.98768 89.3334 1.2112 89.0226 1.49975C88.7118 1.7883 88.5417 2.12901 88.5336 2.47904C88.5295 2.71418 88.5985 2.9475 88.7365 3.16556C88.8745 3.38363 89.0787 3.58212 89.3375 3.74961C89.5964 3.91709 89.9046 4.05025 90.2445 4.14142C90.5843 4.2326 90.9491 4.27997 91.3179 4.28082ZM109.743 32.6979C108.951 33.1028 107.974 33.332 106.959 33.3508C105.546 33.3508 105.045 32.3324 105.045 31.1116V23.1668H109.006C109.692 23.1668 109.968 22.9579 109.968 22.514V21.5674H105.086V18.6885C105.086 18.1597 103.908 18.0357 103.448 18.5971C102.22 20.1377 100.848 21.7698 98.2069 21.7698V23.1668H100.479V30.635C100.479 33.6315 102.578 34.911 105.956 34.911C107.752 34.9473 109.511 34.5773 110.92 33.8665C111.657 33.4617 110.47 32.3846 109.743 32.6979ZM95.7502 31.1051C95.7502 28.1935 90.7753 27.3253 87.7249 26.7116C85.4422 26.2481 82.7501 25.8695 82.7501 24.5573C82.7501 23.6303 84.0296 22.7555 86.7218 22.7555C89.6801 22.7555 91.1848 23.7478 90.8675 25.0273C90.6832 25.6345 91.369 26.0131 93.1911 25.9282C94.1533 25.9282 94.8801 25.4908 94.6037 23.4867C94.5116 22.9057 91.0927 21.3585 86.7218 21.3585C86.0375 21.3591 85.3539 21.3852 84.6745 21.4368L83.7942 21.5282C82.2485 21.5935 81.9517 21.006 81.9517 20.1834V10.8743C81.9517 6.85945 79.1674 5.7823 74.9296 5.7823C70.5075 5.7823 68.0917 8.11285 67.2728 9.01374L67.4468 7.99535C67.6823 6.68971 67.9996 5.69743 66.3106 5.84105L60.435 6.33719V7.64283C62.1649 7.49921 63.1169 7.81908 63.1169 8.77873V17.2654C63.1169 17.9182 62.4311 18.0814 60.9775 18.0814V19.1846H69.9138V18.0814C68.3681 18.0814 67.6311 17.9378 67.6311 17.2654V10.1758C68.5012 9.52294 70.8248 7.73422 73.9264 7.73422C76.7516 7.73422 77.3453 9.03985 77.3453 11.1354V20.9277C77.3378 21.3731 77.5631 21.8074 77.9857 22.1621C78.4084 22.5167 79.0042 22.7715 79.6792 22.8861C78.9064 23.4694 78.4918 24.2116 78.5123 24.9751C78.5123 27.4754 83.1186 28.6374 86.0769 29.2184C88.7281 29.7472 91.3281 30.4718 91.3281 31.4902C91.3281 32.5086 89.9564 33.527 86.7627 33.527C83.569 33.527 82.1154 32.7698 81.706 30.968C81.6139 30.4457 81.1532 29.9757 79.0138 30.2107C77.8776 30.3282 77.3761 31.1116 78.2871 32.8873C78.6044 33.4944 82.0745 34.9763 86.7627 34.9763C91.8706 34.9959 95.7502 33.5466 95.7502 31.1051ZM70.487 27.0315H60.8956C60.8956 24.4725 62.6768 22.9057 65.8705 22.9057C69.0642 22.9057 70.5382 24.4725 70.487 27.0315ZM75.1445 26.7965C75.1445 23.6564 70.7122 21.3912 65.8398 21.3912C60.7216 21.3912 55.9413 23.8066 55.9413 28.076C55.9413 32.1169 60.5988 34.9959 66.3823 34.9959C67.9236 35.0445 69.4592 34.8438 70.8462 34.4123C72.2332 33.9809 73.4266 33.3327 74.3154 32.5282L72.7185 31.4249C72.072 32.0009 71.2192 32.4702 70.2311 32.7938C69.243 33.1174 68.1481 33.286 67.0374 33.2855C63.3421 33.2855 60.8342 31.2748 60.8342 28.5721H72.5548C74.2745 28.5721 75.1445 27.9063 75.1445 26.7965ZM35.8782 7.21197V6.10218H28.7128L18.63 18.8974L7.52367 6.10218H0V7.23808C1.72993 7.47309 2.68191 7.89089 2.68191 8.77873V21.711C2.68191 22.5793 1.72993 22.8469 0 23.1081V24.2113H8.25044V23.1146C6.56146 22.8535 5.5583 22.5923 5.5583 21.7176V10.6131L16.2757 22.5597C16.9513 23.317 18.1489 23.317 18.7324 22.5597L28.3136 10.1562V21.711C28.3136 22.5793 27.2899 22.8469 25.6624 23.1081V24.2113H35.8986V23.1146C34.1687 22.8535 33.3396 22.5923 33.3396 21.7176V8.77873C33.3191 7.90395 34.1482 7.47309 35.8782 7.23808V7.21197ZM51.5192 15.6986C50.6321 15.61 49.7351 15.5685 48.8373 15.5746C47.8888 15.5538 46.9439 15.6591 46.0628 15.8839C45.1816 16.1087 44.3835 16.448 43.7192 16.8802C43.3702 16.4992 43.1603 16.0731 43.105 15.6333C43.105 14.4387 43.7396 13.022 51.4987 12.1734V15.6921L51.5192 15.6986ZM41.8664 19.0998C41.5821 19.779 41.4409 20.4793 41.4467 21.1823V23.9241H38.8979V25.3211C38.8909 25.3636 38.8993 25.4066 38.9224 25.4468C38.9454 25.4869 38.9826 25.5232 39.031 25.5528C39.0794 25.5824 39.1377 25.6045 39.2016 25.6176C39.2654 25.6306 39.3331 25.6341 39.3994 25.6279H41.4467V32.8089C41.4467 33.4617 41.0782 33.6249 39.3994 33.6249V34.7021H48.3869V33.6315C46.3396 33.6315 46.0121 33.4879 46.0121 32.8155V25.6279H50.9357C51.8058 25.6279 51.8468 25.4517 52.6657 23.9371H46.0121V20.8624C46.0121 18.8256 46.79 17.2262 49.431 17.2262C51.3452 17.2262 52.1539 17.7615 52.9011 18.7146C53.0994 18.9656 53.4396 19.1592 53.8531 19.2564C54.1087 19.3259 54.3839 19.3614 54.6617 19.3609C56.052 19.3074 57.4137 19.0858 58.6744 18.7081V17.5004C56.9035 17.6766 56.1255 17.4155 56.1255 16.4559V10.8416C56.1255 7.29683 53.0546 5.81494 48.1003 5.81494C43.6373 5.81494 39.4404 6.85944 39.4404 8.92235C39.4375 9.1051 39.4925 9.28635 39.6021 9.45522C39.7117 9.6241 39.8736 9.77713 40.0782 9.90514C40.2827 10.0331 40.5257 10.1335 40.7925 10.2002C41.0593 10.2669 41.3445 10.2985 41.631 10.2933C42.9002 10.2933 44.2719 9.97338 44.2719 9.35974C44.2719 7.52532 45.4593 7.12057 47.916 7.12057C50.5672 7.12057 51.5704 8.22383 51.5704 10.3847V10.8808C40.6687 11.8992 38.2632 13.4398 38.2632 15.79C38.253 17.3502 39.5223 18.3556 41.8664 19.0998ZM117.615 4.73779V36.073H116.929V4.73779H117.615ZM125.558 11.1419V10.698H128.527C129 10.7189 129.472 10.6532 129.888 10.5087C130.028 10.4468 130.142 10.3637 130.219 10.2668C130.295 10.1699 130.333 10.0623 130.328 9.9538C130.333 9.82607 130.294 9.69923 130.216 9.58169C130.143 9.46493 130.036 9.35844 129.898 9.26834C129.609 9.05833 129.227 8.9083 128.803 8.83748H125.558V8.40009H128.527C129.002 8.42174 129.477 8.35844 129.898 8.21731C130.038 8.15411 130.15 8.0696 130.226 7.97153C130.301 7.87345 130.336 7.76492 130.328 7.65588C130.323 7.41218 130.173 7.17879 129.909 7.00307C129.616 6.79514 129.236 6.64552 128.813 6.57221H125.558V6.12829H130.871V6.53304H129.673C130.058 6.66179 130.385 6.85041 130.625 7.0814C130.85 7.30281 130.968 7.56173 130.963 7.82561C130.974 7.95015 130.946 8.07481 130.881 8.19245C130.816 8.31008 130.715 8.41836 130.584 8.51107C130.312 8.68955 129.949 8.8006 129.561 8.82442C129.961 8.93517 130.302 9.11735 130.544 9.34899C130.785 9.58064 130.917 9.85189 130.922 10.1301C130.932 10.2994 130.875 10.4676 130.758 10.6197C130.649 10.7476 130.491 10.8555 130.298 10.933C130.077 11.0227 129.829 11.0827 129.571 11.1093C129.261 11.1505 128.945 11.1702 128.629 11.168L125.558 11.1419Z" fill="#282828"/>
</svg>
