<svg width="16" height="16" viewBox="0 0 16 16" fill="none" xmlns="http://www.w3.org/2000/svg">
<path fill-rule="evenodd" clip-rule="evenodd" d="M10.5687 11.04C9.44667 12.0513 7.96133 12.6667 6.33333 12.6667C2.838 12.6667 0 9.82867 0 6.33333C0 2.838 2.838 0 6.33333 0C9.82867 0 12.6667 2.838 12.6667 6.33333C12.6667 7.96133 12.0513 9.44667 11.04 10.5687L16 15.5287L15.5287 16L10.5687 11.04ZM6.33333 0.666667C9.46067 0.666667 12 3.206 12 6.33333C12 9.46067 9.46067 12 6.33333 12C3.206 12 0.666667 9.46067 0.666667 6.33333C0.666667 3.206 3.206 0.666667 6.33333 0.666667Z" fill="#282828"/>
</svg>
