<svg width="203" height="64" viewBox="0 0 203 64" fill="none" xmlns="http://www.w3.org/2000/svg">
<path d="M201.616 31.7256C201.616 35.8413 198.94 39.8545 193.882 43.5844C188.833 47.307 181.496 50.6804 172.385 53.5221C154.167 59.2037 128.97 62.7256 101.116 62.7256C73.2615 62.7256 48.064 59.2037 29.8468 53.5221C20.7352 50.6804 13.398 47.307 8.34954 43.5844C3.29115 39.8545 0.615723 35.8413 0.615723 31.7256C0.615723 27.6099 3.29115 23.5967 8.34954 19.8668C13.398 16.1442 20.7352 12.7708 29.8468 9.92905C48.064 4.24745 73.2615 0.725586 101.116 0.725586C128.97 0.725586 154.167 4.24745 172.385 9.92905C181.496 12.7708 188.833 16.1442 193.882 19.8668C198.94 23.5967 201.616 27.6099 201.616 31.7256Z" stroke="#E46A4F"/>
</svg>
