<svg width="131" height="132" viewBox="0 0 131 132" fill="none" xmlns="http://www.w3.org/2000/svg">
<path d="M82.1816 71.7669L80.6082 71.6844L81.8461 72.659L109.016 94.0492L78.2051 78.3512L76.8013 77.6359L77.5358 79.0298L93.6568 109.622L71.8943 82.7489L70.9028 81.5245L71.0069 83.0966L73.2912 117.601L64.3404 84.1996L63.9326 82.6777L63.3883 84.1562L51.4411 116.606L56.8496 82.4524L57.096 80.8962L55.9974 82.0255L31.8843 106.811L50.717 77.8095L51.5751 76.4881L50.1121 77.0729L18.0026 89.9078L47.003 71.0736L48.3244 70.2154L46.75 70.1546L12.1961 68.8198L46.3499 63.4094L47.906 63.1629L46.4925 62.467L15.4689 47.1933L48.8705 56.1422L50.3924 56.55L49.3841 55.3393L27.255 28.7676L54.129 50.5286L55.3535 51.52L54.9248 50.0039L45.5166 16.7288L61.2162 47.539L61.9316 48.9428L62.1566 47.3834L67.096 13.1583L68.9067 47.6906L68.9892 49.264L69.829 47.9309L88.2619 18.6738L75.8706 50.957L75.306 52.4279L76.6154 51.5517L105.355 32.3213L80.9038 56.7735L79.7898 57.8876L81.3424 57.6198L115.419 51.7413L83.1362 64.1344L81.6653 64.6991L83.1926 65.0859L116.714 73.5757L82.1816 71.7669Z" stroke="#F0E8DF"/>
</svg>
