<svg width="80" height="15" viewBox="0 0 80 15" fill="none" xmlns="http://www.w3.org/2000/svg">
<path d="M79.101 9.70605H33.2583V12.3531H79.101V9.70605Z" fill="#FD8694"/>
<path d="M11.6514 11.4707H9.92012V7.38366C9.92012 6.59836 9.80597 6.02925 9.57675 5.67719C9.35293 5.32601 8.97271 5.14954 8.43518 5.14954C7.98304 5.14954 7.59743 5.37189 7.27922 5.8166C6.96552 6.26042 6.80911 6.79336 6.80911 7.41366V11.4707H5.06979V7.24425C5.06979 5.84836 4.56642 5.14954 3.56237 5.14954C3.09496 5.14954 2.70844 5.35954 2.40552 5.77954C2.10709 6.19954 1.95788 6.74395 1.95788 7.41277V11.4707H0.227539V3.97072H1.95967V5.15748H1.98934C2.54125 4.24866 3.34394 3.79425 4.39923 3.79425C4.92597 3.79425 5.38619 3.93807 5.779 4.2266C6.1772 4.50895 6.44776 4.88307 6.59248 5.34719C7.15878 4.3113 8.00552 3.79425 9.12911 3.79425C10.81 3.79425 11.6514 4.81248 11.6514 6.84807V11.4707ZM21.4545 8.18219H16.2464C16.2662 8.87572 16.4828 9.41042 16.8954 9.7863C17.3134 10.1622 17.8851 10.3501 18.6123 10.3501C19.4275 10.3501 20.1763 10.111 20.8577 9.63189V11.0022C20.161 11.4319 19.2406 11.6463 18.0963 11.6463C16.9727 11.6463 16.09 11.3075 15.4482 10.6281C14.8109 9.94513 14.4927 8.98513 14.4927 7.74983C14.4927 6.58336 14.8433 5.63307 15.5444 4.90072C16.2509 4.16395 17.1264 3.79513 18.1709 3.79513C19.2163 3.79513 20.0244 4.12425 20.5961 4.78336C21.1687 5.44248 21.4545 6.35836 21.4545 7.53013V8.18219ZM19.7826 6.9813C19.7781 6.37072 19.6316 5.89689 19.3421 5.56072C19.0545 5.21836 18.6563 5.04719 18.1493 5.04719C17.6514 5.04719 17.2289 5.22542 16.8801 5.58189C16.5377 5.93836 16.3255 6.40513 16.2464 6.9813H19.7826ZM31.272 11.4707H29.5417V10.1966H29.5111C28.9538 11.1628 28.0963 11.6463 26.9377 11.6463C25.9974 11.6463 25.2433 11.3119 24.6761 10.6431C24.1143 9.96895 23.8329 9.05395 23.8329 7.8963C23.8329 6.6566 24.1439 5.66219 24.766 4.91572C25.3925 4.16836 26.2257 3.79513 27.2648 3.79513C28.295 3.79513 29.0446 4.20101 29.512 5.01101H29.5408V0.367188H31.272V11.4707ZM29.5642 8.04277V7.0616C29.5642 6.52954 29.3871 6.07778 29.0338 5.7063C28.6806 5.33572 28.2302 5.15042 27.6837 5.15042C27.0365 5.15042 26.5269 5.38689 26.1538 5.86072C25.7853 6.33366 25.6019 6.99013 25.6019 7.83101C25.6019 8.59248 25.7781 9.19513 26.1323 9.63983C26.49 10.0792 26.9691 10.299 27.5714 10.299C28.1637 10.299 28.6437 10.0872 29.0114 9.66189C29.3799 9.23219 29.5633 8.69219 29.5633 8.04277H29.5642ZM35.6289 2.39572C35.3448 2.39572 35.1013 2.30572 34.8972 2.12483C34.7003 1.94906 34.5913 1.69774 34.5988 1.4366C34.5988 1.15866 34.6977 0.926599 34.8972 0.740423C35.1013 0.555129 35.3448 0.462482 35.6289 0.462482C35.9219 0.462482 36.1709 0.555129 36.375 0.740423C36.579 0.925717 36.6806 1.15866 36.6806 1.4366C36.6806 1.70042 36.579 1.92719 36.375 2.11778C36.1709 2.30307 35.9219 2.39572 35.6289 2.39572ZM36.4855 11.4707H34.7552V3.97072H36.4855V11.4707ZM45.8428 11.4707H44.1637V10.299H44.1341C43.6073 11.1972 42.8334 11.6463 41.8141 11.6463C41.0626 11.6463 40.4729 11.446 40.0451 11.0463C39.6226 10.6457 39.4114 10.1154 39.4114 9.4563C39.4114 8.04013 40.2419 7.21513 41.9031 6.9813L44.1718 6.6663C44.1718 5.59689 43.6541 5.06219 42.6195 5.06219C41.7089 5.06219 40.8882 5.36925 40.1565 5.98513V4.49836C40.9628 4.02895 41.8932 3.79513 42.9475 3.79513C44.8774 3.79425 45.8428 4.72778 45.8428 6.5913V11.4707ZM44.1709 7.78689L42.5673 8.0066C42.0702 8.07013 41.6945 8.18924 41.441 8.36483C41.192 8.53601 41.068 8.83866 41.068 9.27366C41.068 9.5913 41.1822 9.8516 41.4105 10.0572C41.6442 10.2575 41.9552 10.3572 42.3435 10.3572C42.8711 10.3572 43.3053 10.1772 43.6496 9.81542C43.9974 9.44924 44.1709 8.99042 44.1709 8.43895V7.78601V7.78689ZM55.1534 10.3872H55.1237V11.4707H53.3925V0.367188H55.1237V5.28895H55.1534C55.7457 4.29278 56.6105 3.79513 57.7502 3.79513C58.7147 3.79513 59.4689 4.13219 60.0109 4.80542C60.5583 5.47425 60.8316 6.37336 60.8316 7.50101C60.8316 8.75572 60.526 9.7616 59.9138 10.5187C59.3026 11.2704 58.4666 11.6463 57.4069 11.6463C56.4118 11.6463 55.6613 11.2263 55.1534 10.3863V10.3872ZM55.1084 7.40572V8.33572C55.1084 8.88277 55.2855 9.34689 55.6388 9.72719C55.9965 10.1084 56.4496 10.299 56.9961 10.299C57.6379 10.299 58.1404 10.0545 58.5035 9.5666C58.872 9.07248 59.0554 8.38689 59.0554 7.50807C59.0554 6.7713 58.8846 6.19513 58.5413 5.77954C58.2024 5.35954 57.7422 5.14954 57.1606 5.14954C56.5439 5.14954 56.046 5.36483 55.6684 5.79366C55.2954 6.22425 55.1084 6.7616 55.1084 7.40572ZM69.5076 11.4707H67.8284V10.299H67.7988C67.2711 11.1972 66.4972 11.6463 65.4779 11.6463C64.7273 11.6463 64.1377 11.446 63.7098 11.0463C63.2873 10.6457 63.0752 10.1154 63.0752 9.4563C63.0752 8.04013 63.9057 7.21513 65.5678 6.9813L67.8356 6.6663C67.8356 5.59689 67.3188 5.06219 66.2842 5.06219C65.3736 5.06219 64.5529 5.36925 63.8213 5.98513V4.49836C64.6275 4.02895 65.5579 3.79513 66.6123 3.79513C68.5422 3.79513 69.5066 4.72778 69.5066 6.59219V11.4707H69.5076ZM67.8356 7.78689L66.232 8.0066C65.7341 8.07013 65.3583 8.18924 65.1049 8.36483C64.8559 8.53601 64.7318 8.83866 64.7318 9.27366C64.7318 9.5913 64.846 9.8516 65.0752 10.0572C65.3089 10.2575 65.6199 10.3572 66.0073 10.3572C66.535 10.3572 66.97 10.1772 67.3134 9.81542C67.6613 9.44924 67.8356 8.99042 67.8356 8.43895V7.78601V7.78689ZM79.4671 3.97072L76.0199 12.6716C75.3035 14.2245 74.2986 15.001 73.0051 15.001C72.6419 15.001 72.339 14.9692 72.0945 14.9057V13.4922C72.3687 13.5804 72.6177 13.6245 72.8406 13.6245C73.4878 13.6245 73.9705 13.3113 74.2887 12.6866L74.8037 11.4557L71.7664 3.97072H73.6846L75.5049 9.42013C75.5246 9.48807 75.5696 9.66895 75.6397 9.96189H75.6756C75.7017 9.84983 75.7457 9.67425 75.8105 9.43425L77.7206 3.97072H79.4671Z" fill="#2D2D2D"/>
</svg>
